<?xml version="1.0" encoding="utf-8"?>
<!-- Generator: Adobe Illustrator 26.2.1, SVG Export Plug-In . SVG Version: 6.00 Build 0)  -->
<svg version="1.0" id="Layer_1" xmlns="http://www.w3.org/2000/svg" xmlns:xlink="http://www.w3.org/1999/xlink" x="0px" y="0px"
	 viewBox="0 0 15.988889 14.004052" enable-background="new 0 0 16 16" xml:space="preserve">
<path fill="#67BAE9" d="m 14.3,13.004052 -0.9,-0.9 c -0.6,-0.6 -0.6,-1.5 0,-2.1 L 14.3,9.1040518 H 7.7 l 0.9,0.9000002 c 0.6,0.6 0.6,1.5 0,2.1 l -0.9,0.9 z"/>
<path fill="#379E14" d="m 12,3.0040518 h -1.5 l 2,3 2,-3 h -1.6 c -0.1,-0.4 -0.3,-0.8 -0.5,-1.2 -0.4,-0.7 -1.1,-1.19999996 -1.8,-1.49999996 -0.8,-0.3 -1.6,-0.4 -2.4,-0.2 -0.8,0.2 -1.5,0.5 -2,1.09999996 l 0.6,0.6 c 0.4,-0.4 1,-0.7 1.6,-0.89999996 0.6,-0.1 1.2,0 1.8,0.19999996 0.6,0.2 1.1,0.6 1.4,1.2 0.2,0.2 0.3,0.4 0.4,0.7 z"/>
<path fill="#393939" d="M 7.4,4.0040518 H 3 l -3,3 3,3.0000002 H 3.9 L 4.5,9.0040518 H 3.4 l -2,-2 2,-2 h 3.5 z m -0.8,5.3 1.3,1.4000002 c 0.2,0.2 0.2,0.5 0,0.7 l -1.8,1.8 c -0.3,0.3 0,0.8 0.4,0.8 h 9 c 0.4,0 0.7,-0.5 0.3,-0.9 l -1.8,-1.8 c -0.2,-0.2 -0.2,-0.5 0,-0.7 l 1.8,-1.8000002 c 0.4,-0.3 0.1,-0.8 -0.3,-0.8 H 7.3 Z m 6.8,2.8000002 0.9,0.9 H 7.7 l 0.9,-0.9 c 0.6,-0.6 0.6,-1.5 0,-2.1 L 7.7,9.0040518 h 6.6 l -0.9,0.9 c -0.6,0.6000002 -0.6,1.6000002 0,2.2000002 z"/>
</svg>
