<?xml version="1.0" encoding="utf-8"?>
<!-- Generator: Adobe Illustrator 27.0.1, SVG Export Plug-In . SVG Version: 6.00 Build 0)  -->
<svg version="1.1" id="Layer_1" xmlns="http://www.w3.org/2000/svg" xmlns:xlink="http://www.w3.org/1999/xlink" x="0px" y="0px"
	 viewBox="0 0 16 16" style="enable-background:new 0 0 16 16;" xml:space="preserve">
<style type="text/css">
	.st0{fill-rule:evenodd;clip-rule:evenodd;fill:#67BAE9;}
</style>
<path class="st0" d="M12,0.9C12,0.4,11.6,0,11.1,0H7.2H7C6.8,0,6.4,0,6.2,0.3l-6,5.9C0.1,6.3,0,6.5,0,6.7s0.1,0.4,0.2,0.5l4.5,4.5
	c0.1,0.1,0.2,0.1,0.2,0.2V8c0-1.1,0.9-2,2-2h4.6l0.2-0.2C12,5.6,12,5.2,12,4.9l0,0V4.8V0.9z M10.3,3.5c-0.2,0.2-0.6,0.4-0.9,0.4
	C9,3.9,8.7,3.8,8.5,3.5C8,3,8,2.2,8.5,1.7C8.7,1.4,9,1.3,9.4,1.3c0.3,0,0.7,0.1,0.9,0.4C10.8,2.2,10.8,3,10.3,3.5z M15,7H7
	C6.4,7,6,7.4,6,8v7c0,0.6,0.4,1,1,1h8c0.6,0,1-0.4,1-1V8C16,7.4,15.6,7,15,7z M13,15H9v-1h1v-4H9V9l3-1v6h1V15z"/>
</svg>
